#!OML:ASF I:\Actors\actors\Patient Classification 1\Patient 1\Session 1\Subject1.ASF
:FULLY-SPECIFIED
:DEGREES
252
root -0.791324 17.44 7.85559 4.94988 13.0662 -10.8174
lowerback 0.242161 -0.143394 5.59207
upperback -9.28486 0.515777 4.09747
thorax -10.0159 0.0219073 1.20749
lowerneck -5.23531 -10.6362 -10.2687
upperneck 11.6451 -15.2085 12.9426
head 6.16982 -7.14532 4.49697
rclavicle 1.47101e-014 2.32081e-014
rhumerus -70.4095 -23.5221 -33.0253
rradius 22.3878
rwrist 48.1973
rhand 4.22569 -40.1769
rfingers 7.12502
rthumb 29.6311 -67.8304
lclavicle 1.47101e-014 2.32081e-014
lhumerus -52.869 32.9273 56.373
lradius 17.6952
lwrist -45.2038
lhand -13.8837 -7.36553
lfingers 7.12502
lthumb 12.2413 22.2562
rfemur -6.13249 16.1277 29.5865
rtibia 10.7873
rfoot -15.9481 -25.0148
rtoes 10.3019
lfemur -5.81196 -32.4267 0.855315
ltibia 0.127114
lfoot -9.31642 31.6527
ltoes -10.4907
253
root -0.771494 17.4426 7.85243 5.02742 13.0162 -10.7895
lowerback 0.172963 -0.127545 5.38443
upperback -9.32338 0.521688 4.09437
thorax -10.0159 0.0416883 1.31914
lowerneck -5.18348 -10.7086 -10.3323
upperneck 11.8228 -15.3255 12.9208
head 6.2339 -7.20388 4.48683
rclavicle -1.35484e-014 3.36443e-014
rhumerus -70.5916 -24.3365 -33.0514
rradius 22.4293
rwrist 48.6024
rhand 4.12185 -39.9882
rfingers 7.12502
rthumb 29.532 -67.6592
lclavicle -1.35484e-014 3.36443e-014
lhumerus -50.568 31.6422 58.8594
lradius 18.1857
lwrist -43.8713
lhand -13.901 -6.54038
lfingers 7.12502
lthumb 12.2245 23.0824
rfemur -6.12391 16.2616 29.4577
rtibia 10.6419
rfoot -15.9563 -25.1153
rtoes 10.1027
lfemur -5.65935 -33.0056 0.702495
ltibia -0.114515
lfoot -9.40064 32.3352
ltoes -10.6485
254
root -0.755868 17.4422 7.84467 5.05098 12.9892 -10.8175
lowerback 0.248305 -0.149197 5.29295
upperback -9.37246 0.496794 4.09138
thorax -10.1164 0.0353466 1.37129
lowerneck -5.13497 -10.7333 -10.4756
upperneck 11.9869 -15.3846 13.0097
head 6.30284 -7.23169 4.53036
rclavicle 4.34282e-014 -7.77497e-014
rhumerus -70.4788 -25.1195 -33.4952
rradius 22.3862
rwrist 49.1171
rhand 4.41657 -39.6598
rfingers 7.12502
rthumb 29.8133 -67.2807
lclavicle 4.34282e-014 -7.77497e-014
lhumerus -48.5884 30.4549 60.9474
lradius 18.8052
lwrist -42.0903
lhand -14.2487 -6.29162
lfingers 7.12502
lthumb 11.8893 23.3508
rfemur -6.13388 16.2602 29.3995
rtibia 10.5388
rfoot -15.9785 -25.1098
rtoes 9.99508
lfemur -5.46432 -33.7426 0.612982
ltibia -0.385818
lfoot -9.5501 33.086
ltoes -10.0965
255
root -0.744737 17.4398 7.83483 4.9919 12.947 -10.8485
lowerback 0.430558 -0.141095 5.26423
upperback -9.39883 0.520193 4.05513
thorax -10.2548 0.0452541 1.34899
lowerneck -5.08849 -10.7656 -10.6868
upperneck 12.1611 -15.4613 13.1751
head 6.3896 -7.2661 4.60603
rclavicle -1.47225e-015 2.24875e-014
rhumerus -70.0272 -25.7315 -34.6552
rradius 22.3332
rwrist 49.3527
rhand 5.01351 -39.3649
rfingers 7.12502
rthumb 30.3829 -66.8822
lclavicle -1.47225e-015 2.24875e-014
lhumerus -46.753 29.1469 62.9761
lradius 19.6182
lwrist -39.7037
lhand -14.7738 -6.14692
lfingers 7.12502
lthumb 11.3829 23.5241
rfemur -6.08393 16.1937 29.3785
rtibia 10.4417
rfoot -16.0405 -25.0569
rtoes 9.88804
lfemur -5.20611 -34.2847 0.492079
ltibia -0.622022
lfoot -9.68207 33.6392
ltoes -9.36724
256
root -0.738981 17.4375 7.82477 4.92403 12.8866 -10.8597
lowerback 0.577506 -0.095593 5.21334
upperback -9.39619 0.585295 3.99371
thorax -10.3377 0.0769038 1.30646
lowerneck -5.03442 -10.8306 -10.9291
upperneck 12.3109 -15.5871 13.3907
head 6.48095 -7.32335 4.69712
rclavicle 2.84324e-014 -7.47927e-015
rhumerus -69.04 -26.0889 -36.7118
rradius 22.1595
rwrist 49.3401
rhand 5.74296 -39.4016
rfingers 7.12502
rthumb 31.0784 -66.7881
lclavicle 2.84324e-014 -7.47927e-015
lhumerus -44.9768 27.7412 64.9607
lradius 20.5158
lwrist -37.0068
lhand -15.4528 -5.86407
lfingers 7.12502
lthumb 10.728 23.842
rfemur -6.05108 16.1209 29.357
rtibia 10.4259
rfoot -16.0471 -24.9665
rtoes 9.47542
lfemur -5.02796 -34.57 0.384002
ltibia -0.732293
lfoot -9.73239 33.9608
ltoes -8.82103
257
root -0.737304 17.4344 7.81585 4.89013 12.8471 -10.8381
lowerback 0.669671 -0.0778663 5.11893
upperback -9.39711 0.604181 3.91866
thorax -10.3917 0.0891944 1.27721
lowerneck -4.91863 -10.8694 -11.0216
upperneck 12.3193 -15.6613 13.4971
head 6.48955 -7.36197 4.74203
rclavicle 6.49777e-015 -4.14466e-014
rhumerus -67.2648 -25.7236 -40.2941
rradius 22.1015
rwrist 48.7854
rhand 6.82782 -39.8037
rfingers 7.12502
rthumb 32.1118 -66.9872
lclavicle 6.49777e-015 -4.14466e-014
lhumerus -43.301 26.1634 66.8716
lradius 21.472
lwrist -33.9502
lhand -16.2631 -5.53997
lfingers 7.12502
lthumb 9.94631 24.205
rfemur -6.04977 16.0272 29.3082
rtibia 10.4516
rfoot -15.9871 -24.877
rtoes 8.70788
lfemur -4.98922 -34.6119 0.31319
ltibia -0.745166
lfoot -9.65263 34.0186
ltoes -8.46046
258
root -0.737529 17.4308 7.80773 4.78058 12.8174 -10.8538
lowerback 0.844439 -0.0870088 5.10952
upperback -9.40567 0.59856 3.83672
thorax -10.5053 0.0810079 1.19676
lowerneck -4.76389 -10.8836 -10.9562
upperneck 12.3452 -15.6853 13.3801
head 6.45856 -7.38443 4.70055
rclavicle -8.13775e-015 -6.10766e-014
rhumerus -64.7866 -24.2337 -45.7028
rradius 22.571
rwrist 47.3682
rhand 8.04743 -40.3547
rfingers 7.12502
rthumb 33.2721 -67.2971
lclavicle -8.13775e-015 -6.10766e-014
lhumerus -41.9269 25.0089 68.2066
lradius 22.2788
lwrist -31.244
lhand -17.1994 -6.36522
lfingers 7.12502
lthumb 9.04297 23.4209
rfemur -5.94315 15.9352 29.3309
rtibia 10.408
rfoot -15.9073 -24.8306
rtoes 7.96111
lfemur -4.9623 -34.3937 0.260918
ltibia -0.656172
lfoot -9.24265 33.802
ltoes -8.78103
259
root -0.740024 17.4283 7.79601 4.59148 12.7979 -10.9595
lowerback 1.14436 -0.10424 5.27561
upperback -9.43052 0.605365 3.75447
thorax -10.7148 0.062246 1.01904
lowerneck -4.67142 -10.873 -10.983
upperneck 12.5949 -15.6968 13.3133
head 6.51895 -7.39407 4.68521
rclavicle -2.51214e-014 3.11098e-014
rhumerus -61.9466 -21.519 -52.5653
rradius 23.7329
rwrist 45.2722
rhand 8.76235 -40.8747
rfingers 7.12502
rthumb 33.9515 -67.6692
lclavicle -2.51214e-014 3.11098e-014
lhumerus -40.8262 24.3427 69.0427
lradius 22.9433
lwrist -29.2303
lhand -18.1758 -8.36037
lfingers 7.12502
lthumb 8.10062 21.4644
rfemur -5.79319 15.8376 29.4749
rtibia 10.3766
rfoot -15.838 -24.7868
rtoes 7.40419
lfemur -4.98278 -34.0304 0.312954
ltibia -0.428106
lfoot -8.69625 33.3973
ltoes -9.33944
260
root -0.743748 17.4271 7.78248 4.38374 12.7482 -11.0636
lowerback 1.35077 -0.0761974 5.60734
upperback -9.39621 0.665254 3.57896
thorax -10.7981 0.0512866 0.640676
lowerneck -4.50785 -10.872 -11.0996
upperneck 12.8523 -15.7496 13.4218
head 6.59708 -7.42007 4.73816
rclavicle 2.01766e-014 -2.04748e-014
rhumerus -59.1325 -17.7557 -60.3426
rradius 25.6321
rwrist 42.9025
rhand 8.85481 -41.1895
rfingers 7.12502
rthumb 34.0394 -67.9646
lclavicle 2.01766e-014 -2.04748e-014
lhumerus -39.6326 23.3995 70.0187
lradius 23.7349
lwrist -27.3346
lhand -18.952 -9.39485
lfingers 7.12502
lthumb 7.35152 20.4574
rfemur -5.64755 15.7181 29.6184
rtibia 10.3849
rfoot -15.794 -24.6717
rtoes 7.01316
lfemur -5.05928 -33.461 0.386522
ltibia -0.0936648
lfoot -8.35337 32.85
ltoes -9.73902
261
root -0.746034 17.4268 7.77123 4.16941 12.5495 -11.134
lowerback 1.2501 0.0598466 6.12117
upperback -9.21181 0.833541 3.26583
thorax -10.5163 0.0778267 -0.00337403
lowerneck -4.32984 -10.9716 -11.1215
upperneck 13.14 -15.9472 13.4726
head 6.68896 -7.51475 4.74121
rclavicle -1.61513e-014 2.38542e-015
rhumerus -56.5213 -13.255 -68.4505
rradius 28.2107
rwrist 40.8181
rhand 8.18415 -41.3494
rfingers 7.12502
rthumb 33.4021 -68.2639
lclavicle -1.61513e-014 2.38542e-015
lhumerus -38.1385 22.273 71.1447
lradius 24.5714
lwrist -25.6052
lhand -19.3887 -8.76531
lfingers 7.12502
lthumb 6.92992 21.1013
rfemur -5.47952 15.6487 29.7227
rtibia 10.4075
rfoot -15.8062 -24.452
rtoes 6.83802
lfemur -5.02686 -32.913 0.355722
ltibia 0.253616
lfoot -8.27668 32.4729
ltoes -9.92758
262
root -0.7482 17.4268 7.76028 4.00403 12.1855 -11.1629
lowerback 1.3155 0.197416 6.2929
upperback -9.18238 1.02771 3.19104
thorax -10.5119 0.153856 -0.199173
lowerneck -4.06347 -11.1092 -11.0597
upperneck 13.5227 -16.126 12.9444
head 6.73614 -7.63389 4.55356
rclavicle 1.03368e-014 4.35338e-014
rhumerus -54.4539 -7.485 -76.0544
rradius 31.3264
rwrist 39.0644
rhand 6.21278 -41.7224
rfingers 7.12502
rthumb 31.526 -69.0223
lclavicle 1.03368e-014 4.35338e-014
lhumerus -37.1497 21.6396 72.1693
lradius 25.2596
lwrist -24.4366
lhand -19.8345 -8.39761
lfingers 7.12502
lthumb 6.49959 21.4827
rfemur -5.37487 15.6616 29.7764
rtibia 10.4792
rfoot -15.7886 -24.1799
rtoes 6.66553
lfemur -4.89202 -32.6455 0.232299
ltibia 0.568936
lfoot -8.34353 32.4273
ltoes -9.62469
